<svg width="150" height="150" viewBox="0 0 150 150" fill="none" xmlns="http://www.w3.org/2000/svg">
<style>
path {
  stroke: #4b1f0e;
}
</style>
<path 
    d="M107.867 15.6134L110.493 10H39.0451L44.8485 22.7578M92.892 48.609L90.5299 53.8868H59.0086L44.8485 22.7578M44.8485 22.7578H104.714L101.878 29.0602M112.069 62.9429H97.8849H52.179M37.9944 62.9429H52.179M52.179 62.9429C52.179 62.9429 42.1568 86.8917 35.735 102.237M33.2663 140C21.1831 136.938 25.9113 125.711 25.9113 125.711L30.8232 113.974L33.2791 108.106L35.735 102.237M114 102.237C74.9206 91.1278 74.9206 114.586 35.735 102.237" 
    stroke-width="2" 
    stroke-linecap="round"/>
<path 
    d="M98 63C98 63 107.956 87.2418 114.336 102.775L119.215 114.656L124.095 126.536C124.095 126.536 128.792 137.901 116.788 141" 
    stroke-width="2" 
    stroke-linecap="round"
    />
</svg>
