<svg width="113" height="94" viewBox="0 0 113 94" fill="none" xmlns="http://www.w3.org/2000/svg">
<g clip-path="url(#clip0_15_46)">
<path d="M34 81C29.2558 80.278 25.3023 79.4598 20.5581 73.0576C15.814 66.6553 17.8441 47.9372 16.6901 41.2288C15.5361 34.5204 12.8435 32.1245 10.5355 30.2078C8.22753 28.2911 5.53488 28.2911 5.53488 28.2911" stroke="#4B1F0E" stroke-width="3" stroke-linecap="round"/>
<path d="M5.69686 29.2528L2.81723 29.3895C2.82934 29.3776 2.84145 29.3657 2.85355 29.3536C3.29247 28.9146 3.72297 28.7027 4.03311 28.5993C4.18323 28.5493 4.30623 28.5244 4.38934 28.512L5.69686 29.2528Z" fill="#4B1F0E" stroke="#4B1F0E"/>
<path d="M92 38.6316L102.405 38.6316M102.405 38.6316C102.405 34 106.929 34 106.929 34C106.929 34 111 34 111 36.9474C111 39.8947 111 66.4211 111 70.2105C111 74 106.929 74 106.929 74C106.929 74 102.405 74 101.952 70.2105C101.5 66.4211 104.214 66 104.667 63.8947C105.119 61.7895 104.214 59.6842 103.31 57.5789C102.405 55.4737 102.744 53.4211 103.31 51.2632C103.875 49.1053 104.667 48.3158 104.667 45.7895C104.667 43.2632 102.405 43.2632 102.405 38.6316Z" stroke="#4B1F0E" stroke-width="3" stroke-linecap="square"/>
<path d="M35 81.1491C35 74.9869 40.5845 34.652 42.3028 30.7306C44.0211 26.8092 45.7394 26.249 49.6056 26.249H82.6831C87.5 26.249 89 33 89.5563 35.7724C89.5563 35.7724 96 75.547 96 81.7092C96 87.8715 92.1338 91.7929 88.2676 92.3531C84.4014 92.9133 45.7394 93.4735 41.4437 92.3531C37.1479 91.2327 35 87.3113 35 81.1491Z" stroke="#4B1F0E" stroke-width="2" stroke-linecap="round"/>
<path d="M70.2375 5.15385C70.2375 7.32235 68.1695 9.30769 65.3179 9.30769C62.4662 9.30769 60.3982 7.32235 60.3982 5.15385C60.3982 2.98534 62.4662 1 65.3179 1C68.1695 1 70.2375 2.98534 70.2375 5.15385Z" stroke="#4B1F0E" stroke-width="2"/>
<path d="M84.1696 20.0604C79.6161 6.18461 51.3839 5.78816 46.375 20.0604" stroke="#4B1F0E" stroke-width="2" stroke-linecap="square"/>
<path d="M43.1716 21.4568H87.8284C89.0277 21.4568 90 22.429 90 23.6284C90 24.8277 89.0277 25.8 87.8284 25.8H43.1716C41.9723 25.8 41 24.8277 41 23.6284C41 22.429 41.9723 21.4568 43.1716 21.4568Z" stroke="#4B1F0E" stroke-width="2"/>
</g>
<defs>
<clipPath id="clip0_15_46">
<rect width="113" height="94" fill="white"/>
</clipPath>
</defs>
</svg>
